<svg xmlns="http://www.w3.org/2000/svg" width="1080" height="1080" xmlns:v="https://vecta.io/nano"><path vector-effect="non-scaling-stroke" d="M-540-540H540V540H-540z" fill="#fff" visibility="hidden" transform="translate(540 540)"/><g fill="#03e761"><path vector-effect="non-scaling-stroke" transform="matrix(4.04 0 0 4.04 -469.35 -473.6688)" d="M315 143c-38.81-22.86-91.19-22.69-130 0 5.61 9.38 16.2 16.08 23 25 13.23-5.79 27.04-10.27 42-10v26c10.18.78 20.29.95 28.92 7.08 8.64 6.12 13.35-3.79 20.08-9.08-13.31-15.6 8.41-27.34 16-39z" fill-opacity=".96"/><path vector-effect="non-scaling-stroke" transform="matrix(4.04 0 0 4.04 -505.7648 -496.4252)" d="M223 203c-8.78-11.26-23.46-25.31-33.75-35.25-10.3-9.93-26.42-33.98-40.95-19.45-14.53 14.54 9.5 30.64 19.45 40.95S191.71 214.18 203 223c3.73-8.47 11.53-16.26 20-20z" fill-opacity=".94"/></g><path vector-effect="non-scaling-stroke" transform="matrix(4.04 0 0 4.04 -439.092 -496.474)" d="M330 192c8.58-11.2 37.68-28.9 21.08-44.08S317.92 162.63 308 172c7.86 5.75 13.61 15.36 22 20z" fill="#03e661" fill-opacity=".93"/><g fill="#03e761"><path vector-effect="non-scaling-stroke" transform="matrix(4.04 0 0 4.04 -477.8852 -465.54)" d="M168 208c-8.86-6.75-15.61-17.38-25-23-22.52 38.68-23.77 91.83 1 130 8.45-6.96 15.51-15.99 24-23-13.08-25.76-13.06-58.26 0-84z" fill-opacity=".96"/><path vector-effect="non-scaling-stroke" transform="matrix(4.04 0 0 4.04 -461.732 -465.54)" d="M357 185c-11.62 7.54-23.44 29.34-39 16-6.19 6.61-14.63 12.13-8.77 20.77s6.63 18.16 6.77 28.23-1.48 20.34-7.08 28.92c-5.59 8.59 3.4 13.39 9.08 20.08 15.66-13.4 27.33 8.4 39 16 22.7-38.83 22.88-91.22 0-130zm-102 24c-32.06-3.88-56.09 32.41-41.75 59.75 14.33 27.35 51.76 29.41 69.98 5.48S284.77 212.6 255 209z" fill-opacity=".97"/></g><path vector-effect="non-scaling-stroke" transform="matrix(4.04 0 0 4.04 -523.4652 -427.9744)" d="M203 277c-11.26 8.76-25.31 23.49-35.25 33.75-9.94 10.27-33.97 26.48-19.45 40.95 14.52 14.46 30.64-9.5 40.95-19.45 10.3-9.95 24.93-23.96 33.75-35.25-8.47-3.73-16.26-11.53-20-20z" fill="#03e762" fill-opacity=".94"/><g fill="#03e761"><path vector-effect="non-scaling-stroke" transform="matrix(4.04 0 0 4.04 -469.35 -466.7592)" d="M250 317c-3.52 5.02 4.36 21.31-1 25-14.55-.09-28.13-4.25-41-10-6.96 8.45-15.99 15.51-23 24 38.19 24.82 91.28 23.34 130 1-7.54-11.62-29.34-23.44-16-39-4.85-1.02-7.54-11.01-12.32-11.66-4.78-.66-12.04 4.69-16.66 6.68-4.61 2-16.78.74-20.02 3.98z" fill-opacity=".96"/><path vector-effect="non-scaling-stroke" transform="matrix(4.04 0 0 4.04 -480.1576 -480.4876)" d="M330 308c-8.01 5.52-16.45 13.98-22 22 11.61 7.86 27.62 37.79 43.7 21.7 16.07-16.1-13.76-32.01-21.7-43.7z" fill-opacity=".93"/></g></svg>